<svg width="90" height="90" viewBox="0 0 90 90" fill="none" xmlns="http://www.w3.org/2000/svg">
<path d="M0 36C0 21.0011 0 13.5016 3.81966 8.2443C5.05325 6.5464 6.5464 5.05325 8.2443 3.81966C13.5016 0 21.0011 0 36 0V0C58.4984 0 69.7476 0 77.6336 5.72949C80.1804 7.57988 82.4201 9.8196 84.2705 12.3664C90 20.2524 90 31.5016 90 54V54C90 68.9989 90 76.4984 86.1803 81.7557C84.9467 83.4536 83.4536 84.9467 81.7557 86.1803C76.4984 90 68.9989 90 54 90V90C31.5016 90 20.2524 90 12.3664 84.2705C9.8196 82.4201 7.57988 80.1804 5.72949 77.6336C0 69.7476 0 58.4984 0 36V36Z" fill="#1E1E1E"/>
<path fill-rule="evenodd" clip-rule="evenodd" d="M26.0119 37.6732C27.2801 36.5571 29.2628 36.6267 30.4404 37.8287C38.7454 46.3057 49.8493 51.8485 61.9226 53.5438L70.3847 54.732C72.0966 54.9724 69.7198 56.0474 69.4662 57.67C69.2126 59.2926 71.1782 60.8484 69.4662 60.608L61.0042 59.4198C47.5218 57.5267 35.1221 51.337 25.8479 41.8706C24.6703 40.6686 24.7437 38.7894 26.0119 37.6732Z" fill="white"/>
<path d="M30.7976 37.4788C29.4328 36.0857 27.148 36.0073 25.6816 37.2979C24.1997 38.6021 24.1111 40.8123 25.4907 42.2205C34.8444 51.768 47.3463 58.0069 60.9346 59.915L69.3967 61.1032C69.6296 61.1359 69.8534 61.1471 70.0479 61.1071C70.2574 61.0641 70.4938 60.9452 70.6105 60.6799C70.7094 60.4549 70.6714 60.2284 70.6366 60.0901C70.5986 59.9387 70.5337 59.7802 70.4712 59.6373C70.4366 59.5581 70.4011 59.4799 70.3655 59.4015C70.2621 59.1733 70.1583 58.9445 70.0749 58.6911C69.9659 58.36 69.9138 58.0442 69.9602 57.7472C70.007 57.4481 70.1564 57.1494 70.3678 56.846C70.5233 56.6227 70.6892 56.4269 70.8545 56.2318C70.9197 56.155 70.9847 56.0782 71.0489 56C71.1544 55.8716 71.2638 55.7311 71.3453 55.5911C71.4204 55.4622 71.5179 55.2584 71.4972 55.0209C71.4722 54.7347 71.2938 54.5388 71.0931 54.4254C70.9131 54.3237 70.6893 54.2699 70.4542 54.2369L61.9921 53.0487C50.0249 51.3683 39.0231 45.8747 30.7976 37.4788Z" stroke="white" stroke-opacity="0.06" stroke-linecap="round"/>
<path fill-rule="evenodd" clip-rule="evenodd" d="M25.5488 63.474C24.7865 65.4469 26.2424 67.5702 28.3574 67.5702V67.5702C29.6139 67.5702 30.7383 66.79 31.178 65.6129L35.6101 53.7485C36.0765 52.5001 35.5916 51.1012 34.4857 50.3576V50.3576C32.9387 49.3172 30.7847 49.9235 30.1127 51.6626L25.5488 63.474ZM35.2964 38.2472C34.832 39.4489 35.1709 40.8196 36.1838 41.6156V41.6156C37.7276 42.8287 39.9564 42.1137 40.6435 40.2745L45.632 26.9206C45.6739 26.8083 45.7813 26.7338 45.9012 26.7338V26.7338C46.0211 26.7338 46.1284 26.8083 46.1704 26.9206L54.6602 49.6474C55.0138 50.594 55.793 51.3169 56.7752 51.5544V51.5544C59.1061 52.118 60.9718 49.8047 60.1074 47.5678L50.2417 22.0353C49.5487 20.2418 47.8239 19.0592 45.9012 19.0592V19.0592C43.9784 19.0592 42.2536 20.2418 41.5606 22.0353L35.2964 38.2472ZM66.0336 62.9047C65.5852 61.7443 64.5435 60.9176 63.3115 60.7446L60.8511 60.3992V60.3992C59.8267 60.2553 58.9965 61.2553 59.3585 62.2244L60.6243 65.6129C61.064 66.79 62.1884 67.5702 63.4449 67.5702V67.5702C65.56 67.5702 67.0159 65.4469 66.2536 63.474L66.0336 62.9047Z" fill="white"/>
<path d="M31.6464 65.7879L36.0785 53.9235C36.6298 52.4477 36.053 50.809 34.7647 49.9426C32.9695 48.7353 30.4416 49.4242 29.6463 51.4824L25.0824 63.2938C24.1935 65.5943 25.8911 68.0702 28.3574 68.0702C29.8226 68.0702 31.1337 67.1604 31.6464 65.7879ZM41.1119 40.4494L45.9012 27.6288L54.1918 49.8223C54.6003 50.9157 55.5052 51.7617 56.6577 52.0404C59.4221 52.7088 61.568 49.9605 60.5738 47.3876L50.7081 21.8551C49.9406 19.8689 48.0305 18.5592 45.9012 18.5592C43.7718 18.5592 41.8617 19.8689 41.0942 21.8551L34.83 38.067C34.2909 39.4621 34.6796 41.0695 35.8749 42.0087C37.7065 43.448 40.3162 42.5795 41.1119 40.4494ZM63.381 60.2495L60.9206 59.904C59.536 59.7096 58.3902 61.061 58.8901 62.3993L60.1559 65.7879C60.6687 67.1604 61.9798 68.0702 63.4449 68.0702C65.9112 68.0702 67.6089 65.5943 66.7199 63.2938L66.5 62.7245C65.9862 61.3949 64.7926 60.4477 63.381 60.2495Z" stroke="white" stroke-opacity="0.06"/>
</svg>
