<svg width="90" height="90" viewBox="0 0 90 90" fill="none" xmlns="http://www.w3.org/2000/svg">
<path d="M0 36C0 21.0011 0 13.5016 3.81966 8.2443C5.05325 6.5464 6.5464 5.05325 8.2443 3.81966C13.5016 0 21.0011 0 36 0V0C58.4984 0 69.7476 0 77.6336 5.72949C80.1804 7.57988 82.4201 9.8196 84.2705 12.3664C90 20.2524 90 31.5016 90 54V54C90 68.9989 90 76.4984 86.1803 81.7557C84.9467 83.4536 83.4536 84.9467 81.7557 86.1803C76.4984 90 68.9989 90 54 90V90C31.5016 90 20.2524 90 12.3664 84.2705C9.8196 82.4201 7.57988 80.1804 5.72949 77.6336C0 69.7476 0 58.4984 0 36V36Z" fill="white"/>
<path fill-rule="evenodd" clip-rule="evenodd" d="M26.0119 37.6732C27.2801 36.5571 29.2628 36.6267 30.4404 37.8287C38.7454 46.3057 49.8493 51.8485 61.9226 53.5438L70.3847 54.732C72.0966 54.9724 69.7198 56.0474 69.4662 57.67C69.2126 59.2926 71.1782 60.8484 69.4662 60.608L61.0042 59.4198C47.5218 57.5267 35.1221 51.337 25.8479 41.8706C24.6703 40.6686 24.7437 38.7894 26.0119 37.6732Z" fill="#1E1E1E"/>
<path fill-rule="evenodd" clip-rule="evenodd" d="M25.5488 63.474C24.7865 65.4469 26.2424 67.5702 28.3574 67.5702V67.5702C29.6139 67.5702 30.7383 66.79 31.178 65.6129L35.6101 53.7485C36.0765 52.5001 35.5916 51.1012 34.4857 50.3576V50.3576C32.9387 49.3172 30.7847 49.9235 30.1127 51.6626L25.5488 63.474ZM35.2964 38.2472C34.832 39.4489 35.1709 40.8196 36.1838 41.6156V41.6156C37.7276 42.8287 39.9564 42.1137 40.6435 40.2745L45.632 26.9206C45.6739 26.8083 45.7813 26.7338 45.9012 26.7338V26.7338C46.0211 26.7338 46.1284 26.8083 46.1704 26.9206L54.6602 49.6474C55.0138 50.594 55.793 51.3169 56.7752 51.5544V51.5544C59.1061 52.118 60.9718 49.8047 60.1074 47.5678L50.2417 22.0353C49.5487 20.2418 47.8239 19.0592 45.9012 19.0592V19.0592C43.9784 19.0592 42.2536 20.2418 41.5606 22.0353L35.2964 38.2472ZM66.0336 62.9047C65.5852 61.7443 64.5435 60.9176 63.3115 60.7446L60.8511 60.3992V60.3992C59.8267 60.2553 58.9965 61.2553 59.3585 62.2244L60.6243 65.6129C61.064 66.79 62.1884 67.5702 63.4449 67.5702V67.5702C65.56 67.5702 67.0159 65.4469 66.2536 63.474L66.0336 62.9047Z" fill="#1E1E1E"/>
</svg>
