<svg width="18" height="18" viewBox="0 0 18 18" fill="none" xmlns="http://www.w3.org/2000/svg">
<path d="M3 7C3 4.79086 4.791 3 7 3H11C13.209 3 15 4.79086 15 7V11C15 13.2091 13.209 15 11 15H7C4.791 15 3 13.2091 3 11V7Z" fill="#182633"/>
<path d="M3.125 7C3.125 4.8599 4.86 3.125 7 3.125H11C13.14 3.125 14.875 4.8599 14.875 7V11C14.875 13.1401 13.14 14.875 11 14.875H7C4.86 14.875 3.125 13.1401 3.125 11V7Z" stroke="url(#paint0_linear_1791_1294)" stroke-opacity="0.2" stroke-width="0.75"/>
<mask id="mask0_1791_1294" style="mask-type:alpha" maskUnits="userSpaceOnUse" x="5" y="6" width="8" height="6">
<mask id="mask1_1791_1294" style="mask-type:luminance" maskUnits="userSpaceOnUse" x="5" y="6" width="8" height="6">
<path d="M13 6.3125H5V11.6875H13V6.3125Z" fill="white"/>
</mask>
<g mask="url(#mask1_1791_1294)">
<path d="M12.4063 8.8277C12.3457 8.77914 12.2817 8.7348 12.2153 8.69494L11.8877 9.46604L12.4507 6.70227L10.2637 10.5153C10.2443 10.5536 10.2213 10.59 10.1953 10.6241C10.173 10.6529 10.1463 10.6777 10.116 10.6975C10.083 10.7192 10.0467 10.735 10.0087 10.7441C9.95534 10.7574 9.90034 10.7636 9.84534 10.7625H9.285C9.23867 10.7627 9.19234 10.757 9.147 10.7455C9.10634 10.7358 9.067 10.7206 9.03 10.7003C8.994 10.6804 8.961 10.6551 8.93233 10.6255C8.90167 10.5936 8.875 10.558 8.853 10.5196L8.24934 9.44627C8.23467 9.42 8.21334 9.3982 8.18767 9.38304C8.162 9.3679 8.13267 9.36 8.103 9.3601H7.93567C7.90567 9.3603 7.87634 9.3685 7.85034 9.38387C7.82434 9.39924 7.803 9.42124 7.788 9.44767L6.53467 11.6847H11.5713V11.679C11.8847 11.6477 12.182 11.5223 12.425 11.3191C12.6677 11.1158 12.8453 10.8438 12.935 10.5378C13.0247 10.2318 13.022 9.90564 12.928 9.60107C12.8337 9.29647 12.652 9.0272 12.4063 8.8277Z" fill="#00D280"/>
<path d="M6.64062 11.624L7.84229 9.47875C7.85163 9.46202 7.86529 9.44812 7.88162 9.43845C7.89796 9.42875 7.91663 9.42365 7.93563 9.42369H8.10296C8.12163 9.42365 8.14029 9.42862 8.15663 9.43802C8.17296 9.44742 8.18662 9.46099 8.19629 9.47735L8.79863 10.5507C8.82363 10.5936 8.85363 10.6334 8.88763 10.6693C8.92129 10.7027 8.95863 10.7317 8.99929 10.7554C9.04096 10.7784 9.08562 10.796 9.13162 10.8077C9.18196 10.8191 9.23329 10.8248 9.28496 10.8246H9.84529C9.90529 10.8252 9.96529 10.8186 10.024 10.8049C10.069 10.7944 10.112 10.7757 10.1506 10.7498C10.1856 10.7261 10.2166 10.697 10.2426 10.6636C10.2723 10.6273 10.2976 10.5874 10.318 10.545L12.3126 7.06805L11.8263 9.45332L11.9446 9.49145L12.2443 8.78675C12.287 8.81445 12.328 8.84465 12.367 8.87715C12.6036 9.06872 12.7786 9.32745 12.8693 9.62029C12.96 9.91312 12.9623 10.2267 12.8763 10.5209C12.79 10.8151 12.619 11.0766 12.3853 11.2718C12.1516 11.4671 11.8656 11.5872 11.5643 11.6169L11.5083 11.6211V11.624H6.64062Z" fill="#00D280"/>
<path d="M10.594 7.33513C10.6343 7.5159 10.675 7.63733 10.675 7.63733C10.5843 7.43823 10.205 7.05833 10.07 6.94816C7.91633 5.1984 5.19366 7.38173 6.04833 9.63283C6.04833 9.63283 5.824 9.33486 5.697 8.7516C5.56533 8.8415 5.448 8.951 5.34866 9.07643C4.80066 9.767 4.91066 10.7796 5.594 11.3346C5.66166 11.3895 5.734 11.4386 5.81 11.4815L7.50233 8.4381C7.54333 8.3639 7.60333 8.30213 7.67567 8.2592C7.74833 8.21623 7.83067 8.19366 7.91467 8.19376H8.12266C8.20633 8.19336 8.28867 8.21553 8.361 8.25796C8.43367 8.3004 8.49367 8.3616 8.535 8.43526L9.34233 9.86586C9.357 9.89203 9.37833 9.91376 9.404 9.9289C9.42967 9.94403 9.459 9.952 9.48867 9.952H9.64066C9.67066 9.9518 9.7 9.94363 9.726 9.92826C9.752 9.9129 9.77333 9.8909 9.78833 9.86446L11.4553 6.8493L10.594 7.33513Z" fill="#00D280"/>
<path d="M6.26442 9.96456C6.19209 9.81769 6.15142 9.63976 6.06909 9.50276C6.08042 9.53949 6.09309 9.57479 6.10676 9.61009L5.99942 9.67083C5.98976 9.65809 5.78909 9.38696 5.65809 8.85736C5.47476 8.99969 5.32609 9.18239 5.22276 9.39163C5.11942 9.60083 5.06476 9.83109 5.06209 10.065C5.05976 10.2989 5.10976 10.5303 5.20876 10.7417C5.30776 10.953 5.45276 11.1388 5.63309 11.285C5.68176 11.3243 5.73309 11.3606 5.78642 11.3938L6.46809 10.1693C6.37609 10.1143 6.30209 10.0422 6.26442 9.96456Z" fill="#00D280"/>
<path d="M10.6649 7.366C10.6999 7.51714 10.7332 7.61597 10.7332 7.6174L10.6176 7.66257C10.5352 7.4804 10.1659 7.10617 10.0309 6.9974C9.53025 6.5907 8.96158 6.37604 8.38458 6.37604C7.59125 6.37604 6.81358 6.79404 6.35625 7.4691C5.94358 8.07637 5.84192 8.81214 6.06925 9.50274C6.15125 9.63974 6.19192 9.81767 6.26425 9.96454C6.30192 10.0422 6.37592 10.1142 6.46792 10.1693L7.44925 8.40684C7.49558 8.32294 7.56291 8.25307 7.64491 8.20444C7.72658 8.15577 7.81992 8.1301 7.91458 8.13004H8.12258C8.21725 8.13014 8.31025 8.15554 8.39225 8.2036C8.47425 8.2517 8.54225 8.32084 8.58925 8.404C8.58925 8.404 9.26558 9.6044 9.39658 9.8346C9.40558 9.85124 9.41892 9.8651 9.43525 9.87477C9.45125 9.88444 9.46958 9.8896 9.48858 9.8897H9.64058C9.65958 9.8897 9.67825 9.88447 9.69492 9.8745C9.71125 9.86457 9.72492 9.8503 9.73392 9.8332L11.2953 7.01154L10.6649 7.366Z" fill="#00D280"/>
</g>
</mask>
<g mask="url(#mask0_1791_1294)">
<path d="M13.3333 4.64587H4.66663V13.3125H13.3333V4.64587Z" fill="url(#paint1_linear_1791_1294)"/>
</g>
<defs>
<linearGradient id="paint0_linear_1791_1294" x1="9" y1="3" x2="9" y2="15" gradientUnits="userSpaceOnUse">
<stop stop-color="white"/>
<stop offset="1" stop-color="white" stop-opacity="0"/>
</linearGradient>
<linearGradient id="paint1_linear_1791_1294" x1="9.11129" y1="4.05004" x2="13.4706" y2="11.7736" gradientUnits="userSpaceOnUse">
<stop stop-color="white"/>
<stop offset="1" stop-color="white" stop-opacity="0"/>
</linearGradient>
</defs>
</svg>
