<svg width="18" height="18" viewBox="0 0 18 18" fill="none" xmlns="http://www.w3.org/2000/svg">
<path fill-rule="evenodd" clip-rule="evenodd" d="M11.7882 6.9364C11.8675 8.25223 11.9333 9.569 11.9854 10.8862C11.9857 10.8919 11.9857 10.8965 11.9857 10.9022C11.9857 11.2442 11.9159 11.5816 11.7788 11.8949C11.6899 12.0981 11.4516 12.1913 11.2485 12.1025C11.0453 12.0136 10.952 11.7753 11.0409 11.5722C11.1324 11.3629 11.1793 11.1381 11.1803 10.9098C11.1282 9.59662 11.0627 8.28395 10.9835 6.97223C10.983 6.9637 10.9827 6.95644 10.9827 6.94792C10.9827 5.57922 12.0925 4.46936 13.4612 4.46936C14.8299 4.46936 15.9398 5.57922 15.9398 6.94792C15.9398 7.60718 15.6798 8.23439 15.2138 8.70046L13.4612 10.453C13.3043 10.6099 13.0485 10.6099 12.8918 10.453C12.7349 10.2961 12.7349 10.0403 12.8918 9.88356L14.6443 8.13101C14.9593 7.81598 15.1344 7.39347 15.1344 6.94792C15.1344 6.02383 14.3853 5.27477 13.4612 5.27477C12.5371 5.27477 11.7942 6.01751 11.7881 6.9364H11.7882Z" fill="url(#paint0_linear_1791_1295)"/>
<path fill-rule="evenodd" clip-rule="evenodd" d="M9.65742 11.5204C9.57819 10.2046 9.51237 8.88781 9.46029 7.57056C9.45997 7.56488 9.45997 7.5603 9.45997 7.55462C9.45997 7.2126 9.52973 6.87516 9.66689 6.56187C9.75574 6.35875 9.99407 6.26547 10.1972 6.35433C10.4003 6.44318 10.4936 6.68151 10.4047 6.88463C10.3132 7.09392 10.2663 7.31867 10.2654 7.54705C10.3175 8.86019 10.383 10.1729 10.4622 11.4846C10.4627 11.4931 10.463 11.5004 10.463 11.5089C10.463 12.8776 9.35312 13.9875 7.98442 13.9875C6.61572 13.9875 5.50586 12.8776 5.50586 11.5089C5.50586 10.8496 5.76581 10.2224 6.23188 9.75635L7.98442 8.00381C8.1413 7.84692 8.39715 7.84692 8.55387 8.00381C8.71075 8.16069 8.71075 8.41653 8.55387 8.57326L6.80133 10.3258C6.4863 10.6408 6.31127 11.0633 6.31127 11.5089C6.31127 12.433 7.06033 13.182 7.98442 13.182C8.90851 13.182 9.65142 12.4393 9.65757 11.5204H9.65742Z" fill="url(#paint1_linear_1791_1295)"/>
<path fill-rule="evenodd" clip-rule="evenodd" d="M12.5488 8.62658L12.4134 6.42359C12.3998 6.20216 12.5691 6.01055 12.7906 5.99698C13.012 5.9834 13.2036 6.15276 13.2172 6.37419L13.3526 8.57718C13.3662 8.79862 13.1968 8.99022 12.9754 9.00379C12.754 9.01737 12.5624 8.84802 12.5488 8.62658Z" fill="url(#paint2_linear_1791_1295)"/>
<path fill-rule="evenodd" clip-rule="evenodd" d="M8.89687 9.83025L9.03229 12.0332C9.04587 12.2547 8.87651 12.4463 8.65508 12.4598C8.43364 12.4734 8.24204 12.3041 8.22847 12.0826L8.09305 9.87965C8.07947 9.65821 8.24883 9.46661 8.47026 9.45303C8.6917 9.43946 8.8833 9.60881 8.89687 9.83025Z" fill="url(#paint3_linear_1791_1295)"/>
<path fill-rule="evenodd" clip-rule="evenodd" d="M3.82709 4.75711C4.42463 4.75711 4.70699 4.91115 5.03401 5.0895C5.39907 5.28868 5.8129 5.51438 6.60347 5.51438C7.39404 5.51438 7.80771 5.28868 8.17277 5.0895C8.49964 4.91115 8.782 4.75711 9.37938 4.75711C9.97677 4.75711 10.2591 4.91115 10.5861 5.0895C10.7697 5.18956 10.9997 5.12201 11.0997 4.93846C11.1998 4.7549 11.1322 4.52494 10.9487 4.42488C10.5836 4.22585 10.17 4.00016 9.37938 4.00016C8.58881 4.00016 8.17514 4.22585 7.81008 4.42504C7.48306 4.60338 7.20086 4.75743 6.60347 4.75743C6.00608 4.75743 5.72357 4.60338 5.39655 4.42504C5.03149 4.2257 4.61766 4 3.82693 4C3.0362 4 2.62253 4.2257 2.25747 4.42488C2.13152 4.49353 2.06018 4.62359 2.06018 4.75758C2.06018 4.81882 2.07502 4.88085 2.10642 4.93846C2.20649 5.12201 2.43645 5.18972 2.62 5.0895C2.94687 4.91115 3.22923 4.75711 3.82693 4.75711H3.82709Z" fill="url(#paint4_linear_1791_1295)"/>
<path fill-rule="evenodd" clip-rule="evenodd" d="M3.82717 6.6615C4.42472 6.6615 4.70707 6.81555 5.0341 6.99389C5.39916 7.19307 5.81299 7.41861 6.60356 7.41861C7.39413 7.41861 7.80038 7.19686 8.16307 6.9991C8.31017 6.94576 8.41544 6.80466 8.41544 6.63909C8.41544 6.4276 8.24404 6.2562 8.03255 6.2562C7.94574 6.2562 7.86556 6.28508 7.80149 6.33385C7.47825 6.51014 7.19558 6.66135 6.60356 6.66135C6.01154 6.66135 5.7235 6.5073 5.39663 6.32896C5.03157 6.12977 4.61774 5.90424 3.82717 5.90424C3.0366 5.90424 2.62277 6.12993 2.25771 6.32896C2.13176 6.39761 2.06042 6.52766 2.06042 6.66166C2.06042 6.7229 2.07526 6.78493 2.10683 6.84253C2.20689 7.02609 2.43685 7.0938 2.62041 6.99358C2.94727 6.81523 3.22963 6.66119 3.82733 6.66119L3.82717 6.6615Z" fill="url(#paint5_linear_1791_1295)"/>
<path fill-rule="evenodd" clip-rule="evenodd" d="M3.82709 8.55023C3.85881 8.55023 3.88959 8.5507 3.91957 8.55149C3.94956 8.5507 3.98034 8.55023 4.01206 8.55023C4.60961 8.55023 4.89212 8.70427 5.21899 8.88262C5.40254 8.98284 5.6325 8.91513 5.73257 8.73157C5.76397 8.67396 5.77897 8.61178 5.77897 8.5507C5.77897 8.4167 5.70763 8.28681 5.58168 8.21799C5.21662 8.01881 4.80295 7.79327 4.01222 7.79327C3.98081 7.79327 3.94988 7.79375 3.91957 7.79438C3.88927 7.79375 3.85849 7.79327 3.82693 7.79327C3.0362 7.79327 2.62253 8.01897 2.25747 8.21799C2.13152 8.28665 2.06018 8.4167 2.06018 8.5507C2.06018 8.61194 2.07502 8.67396 2.10658 8.73157C2.20665 8.91513 2.4366 8.98284 2.62016 8.88262C2.94703 8.70427 3.22938 8.55023 3.82709 8.55023Z" fill="url(#paint6_linear_1791_1295)"/>
<defs>
<linearGradient id="paint0_linear_1791_1295" x1="10.6545" y1="1.08696" x2="18.519" y2="1.55119" gradientUnits="userSpaceOnUse">
<stop stop-color="#FF9142"/>
<stop offset="1" stop-color="#E7AB31"/>
</linearGradient>
<linearGradient id="paint1_linear_1791_1295" x1="5.17773" y1="2.93828" x2="13.0422" y2="3.40251" gradientUnits="userSpaceOnUse">
<stop stop-color="#FF9142"/>
<stop offset="1" stop-color="#E7AB31"/>
</linearGradient>
<linearGradient id="paint2_linear_1791_1295" x1="12.3503" y1="4.66901" x2="13.8468" y2="4.71173" gradientUnits="userSpaceOnUse">
<stop stop-color="#FF9142"/>
<stop offset="1" stop-color="#E7AB31"/>
</linearGradient>
<linearGradient id="paint3_linear_1791_1295" x1="8.03001" y1="8.12506" x2="9.52653" y2="8.16779" gradientUnits="userSpaceOnUse">
<stop stop-color="#FF9142"/>
<stop offset="1" stop-color="#E7AB31"/>
</linearGradient>
<linearGradient id="paint4_linear_1791_1295" x1="1.45875" y1="3.33189" x2="12.5854" y2="9.42647" gradientUnits="userSpaceOnUse">
<stop stop-color="#FF9142"/>
<stop offset="1" stop-color="#E7AB31"/>
</linearGradient>
<linearGradient id="paint5_linear_1791_1295" x1="1.63976" y1="5.23613" x2="10.4622" y2="8.61616" gradientUnits="userSpaceOnUse">
<stop stop-color="#FF9142"/>
<stop offset="1" stop-color="#E7AB31"/>
</linearGradient>
<linearGradient id="paint6_linear_1791_1295" x1="1.81402" y1="7.29223" x2="7.24876" y2="8.91692" gradientUnits="userSpaceOnUse">
<stop stop-color="#FF9142"/>
<stop offset="1" stop-color="#E7AB31"/>
</linearGradient>
</defs>
</svg>
