<svg width="18" height="18" viewBox="0 0 18 18" fill="none" xmlns="http://www.w3.org/2000/svg">
<g clip-path="url(#clip0_1791_1297)">
<mask id="mask0_1791_1297" style="mask-type:luminance" maskUnits="userSpaceOnUse" x="3" y="3" width="12" height="12">
<path d="M15 3H3V15H15V3Z" fill="white"/>
</mask>
<g mask="url(#mask0_1791_1297)">
<path d="M5.09106 10.477C5.09106 11.059 4.62281 11.531 4.04553 11.531C3.46824 11.531 3 11.059 3 10.477V4.3064C2.99872 3.72439 3.46696 3.25232 4.04424 3.25232C4.62153 3.25232 5.08977 3.72439 5.08977 4.3064V10.477H5.09106Z" fill="#312782"/>
<path d="M7.26132 7.86529C6.68789 7.86529 6.22092 8.33607 6.22092 8.91422V10.4235C6.22092 11.6173 5.3178 12.6028 4.16579 12.6662C4.12859 12.6688 4.09267 12.6688 4.05547 12.6688C3.48203 12.6688 3.01636 13.1383 3.01636 13.7177C3.01636 14.2971 3.48075 14.7653 4.05547 14.7666C4.17734 14.7666 4.30178 14.7614 4.42365 14.7498C6.59681 14.5558 8.29788 12.6468 8.29788 10.4042V8.91292C8.29788 8.3348 7.83091 7.86401 7.25748 7.86401L7.26132 7.86529Z" fill="#312782"/>
<path d="M13.6054 5.178H12.7433C12.3315 5.178 11.9967 4.84044 11.9967 4.42527L11.9993 4.47313H11.9967V4.42527V4.05408C11.9967 3.47207 11.5285 3 10.9512 3C10.3739 3 9.90564 3.47207 9.90564 4.05408V4.65419C9.90564 4.65678 9.90564 4.66066 9.90564 4.66325V4.69041C9.92489 6.11569 11.0666 7.26677 12.4803 7.28487H13.6041C14.1814 7.28487 14.6496 6.81281 14.6496 6.23078C14.6496 5.64878 14.1814 5.17671 13.6041 5.17671L13.6054 5.178Z" fill="url(#paint0_linear_1791_1297)"/>
<path d="M12.9087 8.92107C12.9087 8.33907 13.3769 7.86699 13.9542 7.86699C14.5315 7.86699 14.9998 8.33907 14.9998 8.92107V9.87428C14.9998 10.6438 14.688 11.3422 14.1864 11.8492C13.6848 12.3549 12.9908 12.6692 12.2288 12.6692C11.4668 12.6692 10.7728 12.3549 10.2699 11.8492C9.76828 11.3435 9.45654 10.6438 9.45654 9.87428V4.3064C9.45654 3.72439 9.92481 3.25232 10.5021 3.25232C11.0794 3.25232 11.5476 3.72439 11.5476 4.3064V9.87428C11.5476 10.0618 11.6246 10.2338 11.749 10.358C11.8734 10.4834 12.0428 10.561 12.2288 10.561C12.4148 10.561 12.5854 10.4834 12.7086 10.358C12.833 10.2325 12.91 10.0618 12.91 9.87428V8.92107H12.9087Z" fill="url(#paint1_linear_1791_1297)"/>
<mask id="mask1_1791_1297" style="mask-type:luminance" maskUnits="userSpaceOnUse" x="9" y="3" width="6" height="10">
<path d="M12.9087 8.92107C12.9087 8.33907 13.3769 7.86699 13.9542 7.86699C14.5315 7.86699 14.9998 8.33907 14.9998 8.92107V9.87428C14.9998 10.6438 14.688 11.3422 14.1864 11.8492C13.6848 12.3549 12.9908 12.6692 12.2288 12.6692C11.4668 12.6692 10.7728 12.3549 10.2699 11.8492C9.76828 11.3435 9.45654 10.6438 9.45654 9.87428V4.3064C9.45654 3.72439 9.92481 3.25232 10.5021 3.25232C11.0794 3.25232 11.5476 3.72439 11.5476 4.3064V9.87428C11.5476 10.0618 11.6246 10.2338 11.749 10.358C11.8734 10.4834 12.0428 10.561 12.2288 10.561C12.4148 10.561 12.5854 10.4834 12.7086 10.358C12.833 10.2325 12.91 10.0618 12.91 9.87428V8.92107H12.9087Z" fill="white"/>
</mask>
<g mask="url(#mask1_1791_1297)">
<path d="M13.6054 5.178H12.7433C12.3315 5.178 11.9967 4.84044 11.9967 4.42527L11.9993 4.47313H11.9967V4.42527V4.05408C11.9967 3.47207 11.5285 3 10.9512 3C10.3739 3 9.90564 3.47207 9.90564 4.05408V4.65419C9.90564 4.65678 9.90564 4.66066 9.90564 4.66325V4.69041C9.92489 6.11569 11.0666 7.26677 12.4803 7.28487H13.6041C14.1814 7.28487 14.6496 6.81281 14.6496 6.23078C14.6496 5.64878 14.1814 5.17671 13.6041 5.17671L13.6054 5.178Z" fill="url(#paint2_linear_1791_1297)"/>
</g>
</g>
</g>
<defs>
<linearGradient id="paint0_linear_1791_1297" x1="15.2513" y1="6.7934" x2="10.3094" y2="4.61425" gradientUnits="userSpaceOnUse">
<stop offset="0.13" stop-color="#312782"/>
<stop offset="0.71" stop-color="#E5007E"/>
</linearGradient>
<linearGradient id="paint1_linear_1791_1297" x1="13.282" y1="12.6563" x2="10.1345" y2="3.51245" gradientUnits="userSpaceOnUse">
<stop offset="0.23" stop-color="#312782"/>
<stop offset="0.81" stop-color="#E5007E"/>
</linearGradient>
<linearGradient id="paint2_linear_1791_1297" x1="9.18598" y1="6.72355" x2="12.6933" y2="4.96049" gradientUnits="userSpaceOnUse">
<stop stop-color="#312782"/>
<stop offset="0.29" stop-color="#761780"/>
<stop offset="0.53" stop-color="#AA0C7F"/>
<stop offset="0.64" stop-color="#BE087F"/>
</linearGradient>
<clipPath id="clip0_1791_1297">
<rect width="12" height="12" fill="white" transform="translate(3 3)"/>
</clipPath>
</defs>
</svg>
